<?xml version="1.0" standalone="no"?>
<!DOCTYPE svg PUBLIC "-//W3C//DTD SVG 20010904//EN"
 "http://www.w3.org/TR/2001/REC-SVG-20010904/DTD/svg10.dtd">
<svg version="1.0" xmlns="http://www.w3.org/2000/svg"
 width="1280.000000pt" height="1280.000000pt" viewBox="0 330 1280.000000 1280.000000"
 preserveAspectRatio="xMidYMid meet">
<metadata>
Created by potrace 1.15, written by Peter Selinger 2001-2017
</metadata>
<g transform="translate(0.000000,1280.000000) scale(0.100000,-0.100000)"
fill="#222222" stroke="none">
<path d="M6456 9423 c4 -17 1 -23 -10 -23 -9 0 -16 7 -16 15 0 19 -8 19 -56
-1 -32 -14 -44 -14 -73 -4 -32 12 -35 11 -70 -26 -20 -21 -28 -35 -18 -31 22
8 21 -2 -2 -30 -11 -13 -30 -23 -43 -23 -13 0 -31 -9 -41 -20 -9 -11 -14 -20
-11 -20 4 0 1 -7 -6 -15 -10 -12 -10 -15 0 -15 10 0 10 -3 1 -14 -9 -10 -9
-16 -1 -21 7 -4 0 -15 -19 -29 -17 -13 -28 -25 -25 -29 3 -3 -4 -8 -15 -12
-12 -3 -19 -10 -16 -15 3 -5 1 -11 -5 -15 -17 -11 0 -26 22 -19 12 4 18 2 14
-4 -3 -5 -24 -12 -47 -16 -35 -6 -44 -3 -60 15 -25 28 -24 43 1 36 32 -8 23
13 -12 28 l-33 14 39 1 c41 0 46 6 11 12 -23 3 -34 24 -27 51 4 14 7 15 20 5
9 -7 5 1 -7 19 -14 18 -29 29 -37 26 -8 -3 -14 -1 -14 5 0 6 -9 8 -20 5 -11
-3 -20 0 -20 6 0 6 5 11 10 11 6 0 10 5 10 10 0 6 -11 10 -24 10 -13 0 -32 3
-42 7 -16 6 -16 7 -1 12 12 4 14 10 6 21 -8 13 -11 13 -22 0 -6 -9 -21 -15
-32 -13 -11 1 -14 0 -7 -3 17 -8 15 -24 -3 -24 -13 0 -20 18 -16 43 1 7 -15
11 -31 8 -5 0 -8 4 -8 11 0 9 -3 9 -12 0 -17 -17 -39 -15 -36 4 2 10 -2 19 -8
21 -7 2 -10 -6 -6 -22 4 -24 2 -25 -20 -20 -20 5 -30 1 -46 -19 -11 -14 -28
-26 -38 -26 -15 0 -16 -2 -5 -9 10 -7 4 -15 -28 -32 -22 -13 -41 -27 -41 -31
0 -11 18 -10 25 2 4 7 12 7 25 0 14 -8 20 -6 23 8 3 9 4 4 4 -13 0 -16 -5 -36
-10 -42 -6 -8 -6 -13 0 -13 5 0 10 -7 10 -16 0 -12 -8 -15 -29 -12 -16 3 -28
0 -28 -6 0 -6 -4 -5 -9 2 -7 11 -9 10 -15 -3 -3 -9 -10 -14 -15 -11 -4 3 -22
2 -38 -3 -17 -5 -36 -5 -44 0 -8 4 -19 3 -26 -3 -7 -5 -20 -7 -29 -4 -9 4 -23
1 -30 -5 -17 -14 -35 -3 -27 16 3 8 0 15 -6 15 -6 0 -11 -9 -11 -21 0 -14 -5
-19 -13 -16 -8 3 -20 1 -28 -4 -11 -7 -12 -12 -2 -28 11 -17 10 -22 -6 -30
-10 -6 -21 -7 -25 -4 -3 3 -6 -1 -6 -10 0 -11 -5 -14 -15 -10 -14 5 -14 7 0
23 15 17 15 19 -7 34 -28 20 -42 20 -34 1 7 -19 1 -19 -29 1 -19 13 -28 13
-47 3 -33 -17 -33 -17 -7 -38 14 -12 18 -20 11 -21 -7 0 -11 -4 -8 -9 3 -5 -1
-12 -10 -15 -8 -3 -12 -10 -9 -16 3 -5 0 -10 -7 -10 -18 0 -73 63 -59 68 6 2
8 9 4 15 -4 7 -8 14 -9 17 -12 40 -19 49 -47 55 -18 4 -26 9 -19 12 23 9 12
22 -17 20 -18 -1 -27 -7 -24 -14 3 -7 -2 -13 -11 -13 -9 0 -16 7 -16 15 0 19
-10 19 -38 -1 -12 -8 -22 -13 -22 -10 0 3 -12 1 -26 -5 -20 -7 -32 -6 -51 6
-21 14 -25 14 -48 -2 -13 -10 -25 -22 -25 -27 0 -5 -8 -15 -17 -23 -17 -14
-17 -14 0 -9 21 7 22 -7 2 -24 -8 -7 -13 -16 -10 -20 4 -7 -22 -13 -100 -23
-11 -1 -26 -6 -32 -10 -9 -6 -11 -3 -7 7 3 9 1 16 -5 16 -7 0 -11 6 -10 13 4
21 -12 46 -26 41 -7 -3 -16 0 -20 6 -6 9 -10 9 -16 -1 -7 -11 -9 -11 -9 2 0
31 -30 30 -60 -1 -17 -17 -30 -35 -30 -39 0 -9 -54 7 -79 23 -10 6 -12 5 -7
-2 11 -19 -5 -14 -21 6 -10 13 -13 13 -11 2 2 -9 -6 -16 -21 -18 -16 -3 -21 0
-16 8 6 9 2 9 -14 1 -22 -12 -29 -31 -11 -31 6 0 5 -8 -2 -20 -15 -24 -74 -54
-93 -47 -9 4 -11 -1 -8 -14 3 -11 0 -19 -6 -19 -7 0 -9 -4 -6 -10 9 -14 -8
-13 -23 2 -9 9 -7 14 6 24 15 12 14 14 -15 20 -18 3 -34 14 -36 23 -3 9 -5 3
-6 -13 -1 -21 3 -27 14 -22 8 3 15 1 15 -4 0 -6 -6 -10 -12 -9 -21 1 -50 14
-49 22 3 29 -3 44 -25 61 -26 18 -26 18 -19 -3 3 -11 2 -21 -3 -21 -5 0 -14
-12 -20 -26 -8 -16 -17 -22 -25 -18 -8 5 -7 2 2 -9 21 -26 8 -30 -22 -7 -17
13 -31 17 -44 13 -25 -11 -28 -33 -4 -33 18 0 19 -2 4 -30 -16 -34 -33 -32
-27 3 4 19 3 20 -4 3 -6 -14 -11 -16 -16 -8 -4 7 -4 12 0 12 4 0 -4 9 -17 21
-13 12 -23 25 -21 30 3 14 -46 11 -51 -3 -4 -10 -8 -10 -15 1 -7 9 -16 11 -28
6 -30 -13 -65 -17 -83 -9 -9 4 -23 6 -32 5 -9 -1 -19 5 -22 13 -4 10 -1 13 8
10 15 -6 15 11 -2 40 -7 13 -12 15 -18 7 -5 -9 -10 -9 -21 0 -11 9 -18 9 -29
-1 -9 -7 -18 -10 -22 -6 -3 3 0 6 7 6 9 0 7 6 -6 21 -16 17 -16 22 -4 29 13 8
12 10 -2 10 -9 0 -18 5 -20 12 -2 6 -19 11 -36 11 -23 0 -31 4 -28 14 3 7 0
13 -6 13 -6 0 -17 8 -25 18 -8 9 -12 12 -9 6 3 -6 -1 -20 -9 -30 -12 -16 -16
-16 -24 -5 -5 7 -14 10 -21 6 -7 -4 -13 1 -17 13 -3 13 -12 19 -28 18 -13 0
-21 -6 -18 -13 3 -7 -2 -13 -11 -13 -9 0 -16 6 -16 14 0 9 -7 12 -20 9 -11 -3
-20 -9 -20 -13 0 -7 -52 -7 -93 1 -12 3 -28 -8 -44 -29 -21 -26 -22 -31 -8
-25 18 6 17 5 -1 -20 -10 -14 -28 -27 -39 -27 -26 0 -70 -51 -53 -61 9 -6 9
-11 -1 -22 -9 -12 -9 -16 1 -20 9 -3 7 -9 -7 -22 -11 -9 -14 -14 -7 -10 8 4
12 -1 12 -15 0 -20 -1 -20 -25 -4 -20 13 -25 14 -23 3 2 -9 -5 -14 -20 -13
-17 0 -21 -4 -16 -18 4 -13 0 -18 -15 -18 -14 0 -19 5 -15 15 4 8 0 22 -7 31
-10 13 -10 17 0 24 11 6 11 9 1 15 -20 12 -63 15 -76 4 -18 -15 -44 1 -44 27
0 16 8 28 25 36 18 8 22 15 15 23 -5 7 -7 15 -3 18 3 4 1 7 -5 7 -7 0 -12 6
-12 14 0 8 -12 17 -27 21 -21 5 -24 8 -12 16 10 6 7 9 -13 9 -19 0 -28 -5 -28
-16 0 -9 -6 -14 -12 -11 -7 2 -12 10 -11 16 2 6 -4 11 -12 11 -8 0 -12 -6 -9
-14 3 -8 1 -17 -5 -21 -7 -3 -8 0 -5 9 7 19 4 19 -32 6 -20 -8 -36 -8 -56 1
-21 9 -31 9 -42 0 -19 -16 -47 -10 -68 14 -16 18 -17 18 -18 3 0 -10 6 -18 13
-18 8 -1 6 -5 -4 -13 -9 -7 -19 -23 -24 -35 -5 -17 -12 -22 -26 -19 -25 7 -13
-12 14 -22 15 -6 17 -9 6 -13 -23 -9 -59 10 -59 31 0 11 -4 22 -9 25 -5 4 -6
-4 -3 -16 5 -22 5 -22 -12 -5 -10 9 -23 17 -29 17 -7 0 -6 -4 3 -10 9 -6 10
-10 3 -10 -6 0 -11 -9 -10 -21 1 -16 7 -19 24 -16 29 5 29 0 0 -25 -19 -17
-19 -19 -3 -14 16 6 17 4 6 -9 -7 -8 -19 -15 -26 -15 -8 0 -11 -6 -8 -15 4 -8
10 -12 15 -9 5 3 9 0 9 -5 0 -6 -7 -11 -15 -11 -9 0 -18 -7 -22 -16 -4 -10
-13 -14 -27 -10 -25 6 -51 -7 -42 -22 7 -12 1 -17 -37 -26 -16 -4 -26 -3 -24
1 3 4 -10 9 -29 10 -19 2 -34 -2 -34 -7 0 -6 -6 -10 -14 -10 -7 0 -13 10 -12
23 1 12 -8 30 -20 40 -26 20 -41 23 -25 3 9 -10 8 -15 -4 -20 -8 -3 -15 -12
-15 -21 0 -8 -8 -15 -17 -15 -16 -1 -16 -2 1 -15 11 -8 15 -15 9 -15 -21 0
-43 12 -43 24 0 6 -8 12 -18 12 -12 0 -19 -9 -20 -24 -1 -19 2 -23 14 -18 14
5 15 4 5 -8 -12 -15 -51 -10 -51 6 0 5 -10 6 -21 3 -15 -5 -19 -4 -15 4 9 13
-16 15 -29 2 -6 -6 -17 0 -28 15 -10 13 -13 24 -7 24 5 0 10 5 10 10 0 6 -7
10 -15 10 -8 0 -15 4 -15 8 0 5 -11 14 -25 20 -14 6 -25 19 -25 28 0 25 -31
84 -41 78 -5 -3 -9 4 -9 15 0 15 -6 21 -24 21 -15 0 -26 7 -29 20 -3 11 0 20
5 20 6 0 -1 9 -15 20 -28 22 -27 46 1 53 10 3 0 5 -20 6 -20 0 -40 6 -43 11
-3 6 -2 10 3 10 5 0 9 7 9 15 0 8 -4 15 -9 15 -8 0 -10 -7 -12 -39 -1 -16 -26
-28 -26 -13 0 6 -9 8 -19 5 -23 -6 -34 -40 -15 -47 23 -9 16 -28 -7 -21 -18 6
-20 4 -14 -14 5 -16 3 -20 -8 -15 -9 3 -17 -1 -19 -9 -2 -11 -9 -12 -28 -5
l-25 10 30 12 30 12 -27 27 c-33 33 -48 34 -48 5 0 -14 -3 -18 -8 -11 -9 15
-48 21 -45 7 1 -6 -5 -11 -12 -11 -11 0 -12 4 -3 14 20 25 0 26 -49 2 -36 -18
-43 -25 -28 -27 11 -2 31 -12 45 -22 20 -16 22 -20 8 -20 -20 0 -25 -20 -5
-20 6 -1 -1 -6 -16 -13 l-29 -12 31 -23 c17 -12 31 -28 31 -34 0 -6 -10 -2
-22 9 -28 25 -66 34 -93 23 -11 -5 -16 -9 -11 -9 5 -1 3 -7 -3 -15 -12 -15 -5
-46 11 -46 6 0 8 7 5 15 -12 29 55 44 81 18 14 -14 12 -15 -24 -12 -37 4 -39
2 -40 -23 -1 -25 2 -27 24 -21 16 4 23 2 18 -5 -3 -6 -19 -13 -36 -17 -16 -3
-44 -19 -62 -36 -35 -31 -44 -34 -52 -20 -3 5 1 12 10 15 13 5 14 9 4 22 -7 8
-19 13 -26 10 -7 -3 -16 -1 -19 4 -4 6 -14 6 -27 -1 -16 -8 -19 -8 -13 1 4 7
1 16 -6 21 -12 7 -12 11 -1 18 10 6 4 12 -20 22 -18 8 -40 14 -48 14 -8 0 -13
4 -12 9 4 10 -17 26 -35 26 -7 0 -13 -7 -13 -16 0 -10 -5 -14 -16 -10 -9 4
-13 2 -8 -5 4 -8 -1 -9 -17 -4 -17 4 -20 4 -10 -4 17 -11 23 -39 11 -46 -5 -3
-7 -13 -4 -23 4 -10 3 -13 -3 -6 -16 21 -76 45 -84 33 -5 -8 -13 -8 -29 1 -15
8 -20 8 -16 1 10 -15 -7 -14 -23 2 -11 10 -11 8 -2 -10 8 -16 21 -23 44 -24
27 -2 28 -2 7 -6 -26 -5 -53 -23 -34 -23 6 0 11 -6 11 -13 0 -7 3 -25 7 -40 6
-25 4 -27 -28 -27 -18 0 -46 -7 -62 -15 -24 -12 -25 -15 -11 -21 16 -6 17 -8
2 -24 -15 -16 -13 -18 17 -24 18 -4 29 -10 23 -14 -15 -11 -15 -71 0 -65 7 2
16 0 20 -6 3 -6 2 -11 -4 -11 -16 0 -63 -48 -57 -58 3 -6 0 -14 -7 -19 -14
-12 -69 8 -67 23 1 5 -15 13 -35 18 -25 7 -34 14 -30 25 3 8 0 18 -7 23 -10 6
-10 10 1 17 12 8 12 11 0 23 -16 15 -48 17 -68 4 -10 -6 -12 -6 -7 3 4 6 2 18
-4 26 -10 12 -10 15 1 15 7 0 3 7 -10 16 -13 9 -34 16 -47 17 -13 0 -21 3 -18
8 3 5 0 9 -5 9 -8 0 -11 -1294 -11 -4345 l0 -4345 6400 0 6400 0 0 4255 c0
3847 -1 4255 -16 4255 -8 0 -13 -4 -9 -9 3 -5 -4 -12 -15 -16 -11 -4 -18 -10
-15 -15 3 -5 1 -11 -5 -15 -17 -11 -1 -23 23 -18 18 4 19 3 7 -6 -8 -6 -22
-11 -31 -11 -9 0 -30 -7 -45 -15 -18 -9 -22 -15 -13 -15 23 0 32 -27 12 -34
-14 -6 -14 -8 1 -25 9 -9 13 -21 9 -25 -5 -4 -1 -7 7 -6 34 5 41 0 35 -22 l-7
-23 17 23 c22 30 37 19 19 -16 -7 -15 -14 -33 -14 -39 0 -7 -9 -13 -20 -13
-11 0 -20 5 -20 10 0 6 -8 10 -17 10 -15 0 -15 2 -4 9 11 7 4 11 -25 17 -21 4
-33 9 -26 11 6 3 12 19 12 37 0 18 -6 38 -12 45 -11 10 -9 11 7 5 19 -6 19 -6
4 10 -9 10 -34 22 -55 26 -32 8 -41 6 -52 -7 -9 -13 -15 -14 -24 -5 -9 9 -7
13 5 18 9 3 14 10 11 15 -3 5 -10 7 -15 4 -5 -3 -6 1 -3 9 5 12 11 13 24 6 29
-16 35 -12 15 10 -16 18 -14 25 8 21 4 -1 4 7 -1 16 -5 10 -7 24 -5 31 3 6 0
12 -6 12 -6 0 -11 7 -11 15 0 8 -7 15 -15 15 -13 0 -19 12 -16 32 0 4 -19 13
-43 19 -45 11 -65 34 -47 52 7 7 15 6 25 -2 12 -10 14 -9 12 6 -2 9 -16 23
-32 30 l-29 12 43 1 c26 0 41 4 37 10 -3 6 -17 10 -29 10 -25 0 -39 28 -26 51
7 10 11 10 24 -1 14 -11 16 -10 10 4 -3 9 -10 16 -14 16 -5 0 -12 9 -15 20 -5
16 -12 19 -27 14 -15 -4 -18 -3 -13 6 5 9 2 10 -13 6 -26 -9 -38 10 -15 23 15
8 14 10 -12 16 -17 4 -39 10 -50 15 -16 7 -12 9 20 11 32 2 35 3 12 6 -20 3
-27 9 -23 19 4 12 2 12 -14 4 -11 -6 -20 -15 -20 -21 0 -6 -9 -8 -19 -4 -16 5
-18 2 -14 -15 4 -16 2 -19 -11 -14 -10 4 -16 18 -16 35 0 28 -16 36 -32 14 -5
-6 -8 -3 -8 7 0 9 -13 21 -31 27 -41 14 -52 14 -43 -1 5 -8 2 -9 -12 -4 -10 5
-27 11 -36 13 -10 3 -18 10 -18 17 0 6 -7 3 -15 -8 -8 -10 -20 -16 -27 -13
-17 6 -41 -40 -24 -47 16 -7 -14 -26 -41 -26 -12 0 -25 5 -28 10 -3 6 -13 10
-21 10 -8 0 -12 -4 -9 -10 3 -5 -1 -10 -9 -10 -8 0 -18 5 -21 10 -3 6 -11 10
-16 10 -6 0 -7 -5 -3 -11 4 -8 1 -8 -13 -1 -15 9 -20 8 -20 -4 0 -8 10 -14 23
-14 13 0 26 -4 29 -10 3 -5 -4 -10 -15 -10 -16 0 -20 -5 -16 -15 3 -8 1 -15
-4 -15 -5 0 -7 -7 -4 -15 8 -21 -2 -19 -26 5 -19 19 -19 20 -1 20 18 0 18 2 3
35 -9 19 -20 35 -24 35 -4 0 -8 8 -9 18 0 12 -3 10 -11 -8 -6 -14 -12 -28 -12
-31 -1 -3 -9 -13 -18 -23 -16 -16 -19 -16 -34 -2 -13 14 -13 16 -1 16 16 0 30
24 20 34 -11 10 -73 6 -73 -5 0 -6 9 -8 20 -4 11 4 20 2 20 -4 0 -6 -10 -11
-22 -10 -26 0 -70 17 -50 18 10 1 10 6 2 21 -9 16 -8 20 7 21 14 0 12 2 -5 10
-13 5 -32 19 -43 32 -14 16 -18 18 -19 6 0 -8 5 -20 12 -27 9 -9 8 -12 -5 -12
-10 0 -23 -11 -29 -25 -11 -24 -20 -29 -43 -26 -5 1 1 -8 15 -20 l25 -22 -30
7 c-16 4 -35 14 -41 22 -13 16 -68 9 -58 -7 3 -5 -3 -9 -13 -10 -14 0 -14 -2
5 -9 12 -5 30 -7 40 -4 14 5 14 3 -3 -11 -11 -9 -20 -23 -20 -33 0 -9 -11 -19
-25 -22 l-25 -6 23 -8 c12 -4 22 -12 22 -17 0 -6 -9 -8 -19 -4 -13 4 -23 0
-29 -12 -10 -17 -13 -16 -52 4 -22 13 -38 18 -35 13 3 -6 -1 -10 -10 -10 -9 0
-14 4 -10 9 3 5 1 12 -5 16 -5 3 -10 -3 -10 -14 0 -24 -25 -28 -38 -6 -7 14
-11 13 -27 -5 -20 -22 -8 -28 15 -7 7 6 5 0 -6 -15 -13 -19 -25 -26 -39 -22
-15 4 -16 3 -6 -4 10 -7 10 -11 1 -17 -6 -4 -12 -5 -13 -4 -1 2 -11 15 -22 28
-17 21 -18 24 -3 18 10 -3 20 -2 23 3 4 6 1 10 -6 10 -16 0 -119 102 -119 119
0 8 7 11 20 8 35 -9 23 22 -12 32 l-33 9 43 1 c23 1 42 6 42 11 0 6 -6 10 -12
9 -36 -4 -53 16 -41 46 5 14 8 14 26 -2 19 -18 20 -17 8 5 -6 12 -16 22 -20
22 -5 0 -11 9 -14 21 -3 12 -10 18 -16 15 -6 -4 -8 -14 -5 -24 2 -9 -1 -7 -7
6 -7 12 -19 21 -27 20 -8 -2 -17 3 -19 10 -3 6 0 12 6 12 6 0 11 5 11 10 0 6
-12 10 -27 10 -16 0 -35 5 -43 10 -13 9 -13 10 0 10 9 0 16 9 16 19 0 16 -4
17 -18 10 -10 -5 -18 -14 -18 -18 0 -5 -9 -7 -20 -4 -16 4 -19 2 -14 -11 4
-11 1 -16 -10 -16 -11 0 -16 9 -16 29 0 24 -4 29 -20 26 -11 -2 -20 1 -20 8 0
8 -3 8 -12 -1 -17 -17 -39 -15 -36 4 2 10 -2 19 -8 21 -7 2 -10 -5 -7 -22 5
-23 3 -25 -26 -19 -32 7 -33 6 -33 -44 0 -20 -1 -20 -5 -2 -4 20 -23 28 -23
10 0 -5 -10 -10 -22 -10 -18 0 -20 -2 -8 -10 12 -7 11 -10 -5 -16 -11 -4 -32
-16 -47 -27 -15 -11 -31 -16 -39 -12 -8 6 -10 4 -4 -4 4 -8 17 -10 31 -7 27 7
64 -8 64 -27 0 -7 -9 -18 -20 -25 -11 -7 -20 -17 -20 -24 0 -7 7 -3 16 8 12
15 15 16 10 2 -3 -9 0 -19 7 -22 7 -3 6 -5 -3 -5 -23 -1 -121 35 -114 42 3 3
13 3 22 0 10 -4 7 3 -8 16 -18 16 -21 24 -12 30 16 10 4 44 -14 37 -7 -3 -16
-1 -19 4 -4 6 -14 6 -27 -1 -15 -8 -19 -8 -13 0 4 7 1 18 -5 26 -10 12 -10 15
-1 15 23 0 -19 32 -43 34 -13 0 -22 4 -19 9 2 4 -3 7 -11 7 -9 0 -16 5 -16 12
0 6 -8 4 -19 -6 -11 -10 -25 -15 -32 -10 -8 4 -10 3 -5 -4 4 -8 0 -12 -11 -12
-10 0 -14 -3 -8 -8 23 -16 5 -51 -18 -36 -7 5 -4 1 6 -8 25 -23 15 -23 -33 2
-25 13 -40 16 -42 8 -3 -8 -10 -7 -27 2 -15 7 -21 8 -17 1 9 -14 -6 -14 -22
-1 -6 6 -10 7 -7 4 3 -4 0 -13 -5 -20 -8 -8 -7 -12 2 -11 7 0 29 -1 48 -3 l35
-2 -29 -7 c-17 -3 -28 -8 -26 -11 2 -3 -2 -15 -8 -27 -8 -14 -9 -24 -2 -28 5
-3 10 -14 10 -23 -1 -15 -3 -14 -16 3 -8 11 -12 25 -10 32 5 12 -6 18 -27 14
-5 -1 -6 3 -2 8 3 6 -4 15 -15 21 -21 11 -27 1 -9 -17 8 -8 2 -19 -20 -42 -17
-17 -35 -31 -41 -31 -8 0 -8 -6 0 -20 12 -23 7 -25 -21 -10 -10 6 -19 20 -19
31 0 19 -1 19 -16 5 -8 -9 -21 -16 -27 -15 -8 0 -8 2 1 6 6 2 10 9 6 14 -11
18 -22 9 -19 -16 1 -17 -3 -25 -14 -25 -14 0 -14 -2 -1 -10 8 -5 26 -7 40 -4
l25 5 -25 -15 c-17 -10 -27 -11 -31 -4 -4 6 -17 8 -29 5 -33 -8 -50 2 -50 30
0 18 4 24 15 19 13 -5 12 -1 -2 19 -10 13 -24 22 -30 20 -7 -2 -13 0 -13 5 0
5 -6 7 -14 4 -8 -3 -17 -1 -21 5 -3 6 -1 11 4 11 6 0 11 5 11 10 0 6 -10 10
-22 10 -13 0 -30 5 -38 10 -12 7 -8 10 15 11 l30 1 -30 9 c-19 5 -31 5 -36 -2
-5 -8 -13 -8 -28 0 -12 7 -19 17 -15 23 4 6 -1 8 -13 4 -11 -4 -33 0 -49 9
-38 20 -43 19 -37 -6 5 -18 2 -20 -23 -17 -27 3 -29 1 -27 -27 1 -16 -1 -22
-4 -12 -2 9 -9 17 -15 17 -7 0 -1 11 12 25 13 14 19 25 13 25 -5 0 -20 -11
-33 -25 -13 -14 -18 -25 -12 -25 25 0 11 -18 -19 -24 -17 -3 -28 -10 -25 -15
3 -5 -6 -8 -19 -8 -14 0 -25 3 -25 8 0 5 -7 9 -15 9 -9 0 -12 6 -9 15 4 8 1
15 -6 15 -6 0 -10 10 -8 23 1 13 -6 32 -16 42 -18 18 -18 19 0 32 17 12 17 14
-2 28 -10 8 -23 15 -28 15 -4 0 -5 7 -2 16 4 10 1 14 -6 12 -21 -7 -20 -26 1
-33 12 -3 21 -11 21 -17 0 -7 -5 -6 -15 2 -11 10 -18 9 -30 -4 -18 -18 -29
-21 -20 -6 3 6 -3 10 -14 10 -28 0 -45 -34 -26 -50 8 -7 12 -17 9 -22 -4 -6
-1 -14 6 -18 16 -10 5 -43 -13 -37 -6 2 -11 11 -9 19 1 10 -5 14 -20 13 -13
-2 -22 -8 -20 -14 3 -14 -36 -6 -53 11 -6 6 -4 7 6 3 9 -3 21 0 28 8 14 17 2
51 -19 55 -41 10 -50 10 -45 3 9 -15 -22 -20 -41 -6 -11 7 -24 9 -34 5 -24
-13 -54 -23 -63 -21 -15 3 -34 -24 -29 -41 2 -10 -1 -18 -7 -18 -5 0 -8 7 -5
15 4 10 -4 20 -27 30 -19 8 -27 15 -19 15 8 1 -1 8 -20 15 -19 7 -30 14 -23
14 8 1 9 10 2 33 -11 41 -11 41 1 33 5 -3 7 0 4 8 -7 20 -72 27 -86 10 -8 -10
-6 -13 8 -13 21 -1 70 -37 61 -46 -3 -3 -15 4 -26 15 -12 12 -27 21 -33 21 -7
0 -24 9 -37 19 -30 23 -23 66 13 75 19 5 23 11 18 28 -6 24 -49 68 -67 68 -5
0 -3 5 5 10 12 8 11 10 -6 10 -12 0 -27 -7 -34 -15 -7 -8 -16 -15 -21 -15 -5
0 -9 7 -9 15 0 8 -7 15 -15 15 -9 0 -12 -6 -9 -17 4 -13 3 -14 -3 -6 -7 9 -18
10 -43 3 -25 -7 -41 -6 -61 4 -26 13 -29 12 -64 -25 -20 -22 -30 -36 -21 -33
22 9 20 -9 -3 -26 -11 -7 -18 -17 -15 -22 3 -4 -11 -8 -30 -8 -25 0 -36 -4
-36 -15 0 -8 -7 -15 -16 -15 -8 0 -12 -4 -9 -10 3 -5 2 -10 -4 -10 -5 0 -8 14
-6 30 2 17 -1 30 -6 30 -5 0 -9 6 -9 14 0 7 -15 18 -32 24 -18 5 -25 10 -15
11 9 1 17 5 17 11 0 5 -13 8 -29 7 -18 -1 -27 -7 -24 -14 3 -7 -2 -13 -11 -13
-9 0 -16 7 -16 15 0 19 -10 19 -38 -1 -12 -8 -22 -13 -22 -10 0 3 -10 2 -22
-3 -16 -6 -33 -4 -52 6 -27 14 -31 14 -41 -1 -7 -9 -18 -16 -25 -16 -7 0 -11
-3 -7 -6 3 -4 -4 -15 -16 -26 l-22 -19 25 6 25 6 -22 -20 c-13 -10 -23 -25
-23 -31 0 -8 -9 -10 -23 -7 -12 4 -29 2 -37 -3 -8 -5 -11 -10 -7 -10 4 0 -1
-10 -13 -22 -15 -16 -17 -24 -8 -29 10 -7 10 -11 1 -20 -9 -9 -9 -16 -3 -24 7
-9 3 -17 -15 -29 -25 -16 -51 -14 -40 4 8 13 -42 43 -56 34 -7 -4 -9 -3 -6 3
4 6 -9 18 -28 29 -18 10 -32 22 -29 26 3 4 1 8 -4 8 -11 0 -25 -30 -17 -38 3
-3 5 0 5 6 0 6 7 9 15 6 30 -12 14 -21 -30 -18 -48 4 -68 -13 -46 -39 8 -11 4
-13 -19 -9 -16 2 -28 8 -25 12 3 4 -10 10 -27 14 -19 4 -34 2 -39 -5 -4 -8
-16 -6 -39 6 -18 9 -39 13 -48 9 -10 -4 -23 -6 -31 -5 -7 1 -10 -3 -6 -9 4 -7
-2 -9 -19 -6 -15 3 -30 -2 -37 -10 -22 -27 -49 -36 -65 -23 -12 10 -12 14 -2
20 7 5 18 9 23 9 6 0 3 -5 -5 -10 -13 -8 -13 -10 1 -10 9 0 23 7 30 16 7 9 22
20 34 24 18 8 18 9 2 9 -10 1 -28 -4 -39 -10 -16 -9 -19 -8 -16 2 2 7 -7 23
-21 36 -17 15 -20 21 -9 17 16 -5 16 -4 3 24 -15 30 -59 54 -48 26 3 -7 -2
-20 -10 -28 -13 -13 -17 -13 -26 -2 -9 10 -8 15 4 20 9 3 13 10 10 16 -8 13
-48 13 -62 -1 -8 -8 -14 -5 -22 10 -9 16 -9 21 1 21 7 0 5 5 -6 11 -10 6 -27
20 -37 30 -11 11 -26 19 -34 19 -21 0 -19 17 3 24 9 3 1 3 -20 0 -21 -3 -38 0
-40 6 -2 7 -15 2 -32 -11 -24 -19 -32 -20 -48 -10 -18 11 -18 11 -4 -11 19
-29 10 -44 -32 -50 -39 -6 -51 10 -34 46 9 20 7 22 -24 24 -19 2 -43 -2 -54
-8 -29 -15 -41 -5 -30 25 9 23 7 25 -16 25 -30 0 -61 25 -41 34 6 3 0 4 -15 2
-15 -1 -30 2 -33 8 -2 6 -2 1 1 -11z m-16 -48 c-7 -8 -17 -15 -22 -15 -6 0 -5
7 2 15 7 8 17 15 22 15 6 0 5 -7 -2 -15z m2070 -20 c-7 -8 -17 -15 -22 -15 -6
0 -5 7 2 15 7 8 17 15 22 15 6 0 5 -7 -2 -15z m-1690 -10 c0 -2 -9 -9 -20 -15
-16 -9 -18 -8 -14 5 5 13 34 22 34 10z m-1241 -56 c-7 -4 -16 -5 -19 -2 -3 3
1 8 8 10 6 3 13 12 13 21 1 14 2 13 6 -2 3 -10 -1 -22 -8 -27z m1043 16 c-3
-16 -11 -25 -24 -25 -15 0 -17 3 -8 19 5 11 15 22 22 24 7 3 14 6 14 6 1 1 -1
-10 -4 -24z m288 -14 c0 -7 -43 -31 -57 -31 -3 0 1 7 8 17 13 15 10 16 -33 11
-57 -7 -65 8 -10 17 20 4 42 8 47 9 13 4 45 -12 45 -23z m1144 14 c-4 -8 -13
-15 -21 -15 -13 0 -13 3 -3 15 7 8 16 15 21 15 5 0 6 -7 3 -15z m276 -11 c0
-2 -9 -4 -21 -4 -11 0 -18 4 -14 10 5 8 35 3 35 -6z m-2666 -2 c2 -4 1 -14 -3
-21 -6 -9 -10 -7 -14 8 -5 20 7 29 17 13z m76 -2 c0 -5 8 -10 17 -10 13 0 14
-3 5 -12 -8 -8 -15 -8 -27 2 -17 14 -20 30 -5 30 6 0 10 -4 10 -10z m976 -50
c-7 -8 -12 -20 -9 -26 2 -7 -9 -16 -26 -22 -40 -14 -50 11 -17 41 29 27 74 33
52 7z m1144 0 c0 -5 -7 -7 -15 -4 -8 4 -15 8 -15 10 0 2 7 4 15 4 8 0 15 -4
15 -10z m-860 -10 c0 -5 -5 -10 -11 -10 -5 0 -7 5 -4 10 3 6 8 10 11 10 2 0 4
-4 4 -10z m1173 -9 c17 -6 17 -8 3 -20 -9 -7 -14 -17 -11 -21 3 -5 1 -11 -4
-14 -13 -8 -42 4 -35 15 3 5 0 9 -5 9 -7 0 -7 7 1 20 14 21 22 23 51 11z
m-2528 -7 c13 -5 14 -8 3 -15 -19 -13 -28 -11 -28 6 0 17 2 18 25 9z m2680 -4
c3 -5 -1 -10 -9 -10 -9 0 -16 5 -16 10 0 6 4 10 9 10 6 0 13 -4 16 -10z
m-2608 -30 c1 -11 0 -20 -2 -20 -2 0 -9 9 -15 20 -8 15 -8 20 3 20 7 0 13 -9
14 -20z m1303 4 c0 -2 -9 -4 -20 -4 -11 0 -20 4 -20 9 0 5 9 7 20 4 11 -3 20
-7 20 -9z m1495 -54 c-3 -5 -11 -10 -16 -10 -6 0 -7 5 -4 10 3 6 11 10 16 10
6 0 7 -4 4 -10z m-5495 -20 c-8 -5 -17 -7 -19 -4 -3 3 1 9 9 14 8 5 17 7 19 4
3 -3 -1 -9 -9 -14z m1780 -5 c-7 -8 -17 -15 -23 -15 -5 0 -2 9 8 20 21 23 35
19 15 -5z m2280 15 c0 -5 -2 -10 -4 -10 -3 0 -8 5 -11 10 -3 6 -1 10 4 10 6 0
11 -4 11 -10z m1845 -10 c3 -5 1 -10 -4 -10 -6 0 -11 5 -11 10 0 6 2 10 4 10
3 0 8 -4 11 -10z m292 -16 c9 -8 10 -15 3 -19 -5 -3 -10 -1 -10 4 0 6 -5 11
-11 11 -6 0 -8 -7 -5 -16 6 -14 4 -15 -9 -4 -9 7 -20 21 -25 30 -8 15 -5 16
18 12 15 -3 32 -11 39 -18z m-227 6 c0 -5 -4 -10 -10 -10 -5 0 -10 5 -10 10 0
6 5 10 10 10 6 0 10 -4 10 -10z m1760 6 c0 -3 -4 -8 -10 -11 -5 -3 -10 -1 -10
4 0 6 5 11 10 11 6 0 10 -2 10 -4z m-1860 -61 c0 -12 -28 -4 -34 11 -12 31 -6
38 14 16 11 -12 20 -24 20 -27z m137 39 c-3 -3 -12 -4 -19 -1 -8 3 -5 6 6 6
11 1 17 -2 13 -5z m1769 -24 c18 -1 18 -1 1 -11 -21 -12 -47 4 -47 30 1 14 2
14 14 -1 7 -10 22 -18 32 -18z m-9502 12 c-6 -4 -13 -13 -15 -20 -3 -10 -10
-8 -23 7 -19 21 -19 21 15 21 19 0 29 -4 23 -8z m6411 -2 c3 -5 1 -10 -4 -10
-6 0 -11 5 -11 10 0 6 2 10 4 10 3 0 8 -4 11 -10z m350 0 c-3 -5 -11 -10 -16
-10 -6 0 -7 5 -4 10 3 6 11 10 16 10 6 0 7 -4 4 -10z m2635 -18 c0 -15 -2 -15
-10 -2 -13 20 -13 33 0 25 6 -3 10 -14 10 -23z m-9580 8 c0 -5 -5 -10 -11 -10
-5 0 -7 5 -4 10 3 6 8 10 11 10 2 0 4 -4 4 -10z m1310 0 c0 -5 -5 -10 -11 -10
-5 0 -7 5 -4 10 3 6 8 10 11 10 2 0 4 -4 4 -10z m437 4 c-3 -3 -12 -4 -19 -1
-8 3 -5 6 6 6 11 1 17 -2 13 -5z m2273 2 c0 -3 -4 -8 -10 -11 -5 -3 -10 -1
-10 4 0 6 5 11 10 11 6 0 10 -2 10 -4z m-525 -16 c3 -5 -3 -10 -15 -10 -12 0
-18 5 -15 10 3 6 10 10 15 10 5 0 12 -4 15 -10z m2645 -11 c0 -6 -4 -7 -10 -4
-5 3 -10 11 -10 16 0 6 5 7 10 4 6 -3 10 -11 10 -16z m1980 0 c0 -5 -4 -9 -10
-9 -5 0 -10 7 -10 16 0 8 5 12 10 9 6 -3 10 -10 10 -16z m-4029 -12 c-13 -13
-26 -3 -16 12 3 6 11 8 17 5 6 -4 6 -10 -1 -17z m2599 3 c0 -5 -4 -10 -9 -10
-5 0 -16 -3 -25 -6 -9 -3 -16 -1 -16 6 0 6 5 8 10 5 6 -3 10 -1 10 4 0 6 7 11
15 11 8 0 15 -4 15 -10z m2760 6 c0 -3 -4 -8 -10 -11 -5 -3 -10 -1 -10 4 0 6
5 11 10 11 6 0 10 -2 10 -4z m-9245 -16 c3 -5 2 -10 -4 -10 -5 0 -13 5 -16 10
-3 6 -2 10 4 10 5 0 13 -4 16 -10z m9305 6 c0 -3 -4 -8 -10 -11 -5 -3 -10 -1
-10 4 0 6 5 11 10 11 6 0 10 -2 10 -4z m-1470 -27 c0 -5 -4 -9 -8 -9 -5 0 -9
7 -9 15 0 8 4 12 9 9 4 -3 8 -9 8 -15z m85 11 c3 -6 -1 -7 -9 -4 -18 7 -21 14
-7 14 6 0 13 -4 16 -10z m400 -10 c3 -5 1 -10 -4 -10 -6 0 -11 5 -11 10 0 6 2
10 4 10 3 0 8 -4 11 -10z m-1815 -10 c-8 -5 -19 -10 -25 -10 -5 0 -3 5 5 10 8
5 20 10 25 10 6 0 3 -5 -5 -10z m2844 -21 c-10 -16 -24 -9 -24 12 0 18 2 19
15 9 8 -7 12 -16 9 -21z m-9409 11 c-3 -5 -11 -10 -16 -10 -6 0 -7 5 -4 10 3
6 11 10 16 10 6 0 7 -4 4 -10z m855 -4 c0 -11 -19 -15 -25 -6 -3 5 1 10 9 10
9 0 16 -2 16 -4z m1938 -21 c0 -14 -5 -25 -10 -25 -5 0 -6 -4 -3 -10 3 -6 -1
-7 -9 -4 -9 3 -16 10 -16 14 0 5 -3 16 -7 25 -5 14 -2 16 15 10 13 -4 22 -2
22 4 0 6 2 11 4 11 2 0 4 -11 4 -25z m569 10 c0 -8 -7 -15 -15 -15 -12 0 -12
3 -2 15 7 8 13 15 15 15 1 0 2 -7 2 -15z m6123 -12 c-1 -27 -1 -27 -15 -9 -12
16 -12 22 -2 28 17 11 17 11 17 -19z m-4970 7 c0 -5 -2 -10 -4 -10 -3 0 -8 5
-11 10 -3 6 -1 10 4 10 6 0 11 -4 11 -10z m4847 -16 c-3 -3 -12 -4 -19 -1 -8
3 -5 6 6 6 11 1 17 -2 13 -5z m67 -2 c3 -5 -1 -9 -9 -9 -8 0 -12 4 -9 9 3 4 7
8 9 8 2 0 6 -4 9 -8z m1476 -2 c0 -5 -7 -10 -15 -10 -8 0 -15 5 -15 10 0 6 7
10 15 10 8 0 15 -4 15 -10z m-8615 -10 c-3 -5 -11 -10 -16 -10 -6 0 -7 5 -4
10 3 6 11 10 16 10 6 0 7 -4 4 -10z m-980 -10 c4 -6 11 -7 17 -4 7 4 8 2 4 -4
-4 -7 -2 -12 3 -12 6 0 11 -5 11 -11 0 -6 -13 -1 -29 10 -15 11 -32 17 -36 13
-5 -4 -5 -1 -1 6 9 15 23 16 31 2z m1172 4 c-3 -3 -12 -4 -19 -1 -8 3 -5 6 6
6 11 1 17 -2 13 -5z m183 -18 c0 -2 -9 -2 -20 1 -11 3 -20 9 -20 15 0 5 9 4
20 -2 11 -6 20 -12 20 -14z m6484 -11 c4 -13 2 -14 -14 -5 -23 13 -26 20 -6
20 8 0 16 -7 20 -15z m-514 -5 c0 -5 -4 -10 -10 -10 -5 0 -10 5 -10 10 0 6 5
10 10 10 6 0 10 -4 10 -10z m2300 -5 c0 -8 -2 -15 -4 -15 -2 0 -6 7 -10 15 -3
8 -1 15 4 15 6 0 10 -7 10 -15z m-10110 -10 c-7 -9 -15 -13 -19 -10 -3 3 1 10
9 15 21 14 24 12 10 -5z m690 5 c0 -5 -4 -10 -10 -10 -5 0 -10 5 -10 10 0 6 5
10 10 10 6 0 10 -4 10 -10z m7714 -3 c3 3 6 2 6 -4 0 -21 -30 -22 -41 -2 -9
18 -9 19 9 10 11 -6 22 -7 26 -4z m-9484 -31 c-11 -5 -20 -15 -20 -23 0 -7 -7
-13 -16 -13 -12 0 -14 5 -9 18 5 9 8 24 9 33 0 13 5 14 29 5 27 -10 27 -11 7
-20z m1813 20 c4 -10 0 -12 -14 -9 -10 3 -16 9 -13 14 8 13 21 11 27 -5z m853
-8 c10 -12 13 -18 6 -14 -9 5 -19 0 -29 -13 -12 -17 -18 -20 -29 -10 -19 16
-18 36 4 48 24 14 26 14 48 -11z m1409 12 c3 -5 1 -10 -4 -10 -6 0 -11 5 -11
10 0 6 2 10 4 10 3 0 8 -4 11 -10z m4700 -11 c10 -16 3 -16 -35 -3 l-35 13 32
0 c17 1 35 -4 38 -10z m678 -13 c23 -23 23 -24 5 -35 -11 -7 -27 -9 -37 -6
-10 3 -24 -1 -31 -10 -14 -16 -35 -21 -25 -5 4 6 -1 7 -11 3 -14 -5 -16 -3
-11 11 4 10 7 20 7 23 0 3 6 0 14 -6 10 -8 16 -9 21 -1 3 5 16 10 28 10 16 0
18 3 9 12 -7 7 -12 16 -12 20 0 15 19 8 43 -16z m1004 8 c-3 -3 -12 -4 -19 -1
-8 3 -5 6 6 6 11 1 17 -2 13 -5z m218 -17 c7 -7 4 -8 -8 -3 -10 3 -25 6 -33 6
-8 0 -14 5 -14 11 0 12 40 2 55 -14z m645 13 c0 -5 -2 -10 -4 -10 -3 0 -8 5
-11 10 -3 6 -1 10 4 10 6 0 11 -4 11 -10z m-10340 -14 c0 -11 -19 -15 -25 -6
-3 5 1 10 9 10 9 0 16 -2 16 -4z m2577 -12 c-3 -3 -12 -4 -19 -1 -8 3 -5 6 6
6 11 1 17 -2 13 -5z m-2704 -35 l22 -21 -27 13 c-16 7 -28 16 -28 21 0 13 9
10 33 -13z m9881 -28 c-5 -5 -33 30 -34 43 0 4 9 -2 19 -15 11 -13 17 -26 15
-28z m-9776 21 c2 -7 -2 -10 -12 -6 -9 3 -16 11 -16 16 0 13 23 5 28 -10z
m9860 -17 c-3 -3 -9 2 -12 12 -6 14 -5 15 5 6 7 -7 10 -15 7 -18z m-10971 1
c-3 -7 2 -24 10 -36 15 -21 15 -22 -8 -14 -13 4 -32 7 -41 6 -10 0 -18 4 -18
10 0 6 10 8 25 4 14 -4 25 -2 25 4 0 5 -7 10 -15 10 -18 0 -20 16 -2 23 22 9
29 7 24 -7z m10743 4 c0 -5 -2 -10 -4 -10 -3 0 -8 5 -11 10 -3 6 -1 10 4 10 6
0 11 -4 11 -10z m-165 -10 c-3 -5 -12 -10 -18 -10 -7 0 -6 4 3 10 19 12 23 12
15 0z m415 -10 c-24 -15 -36 -11 -14 4 10 8 21 12 24 10 2 -3 -2 -9 -10 -14z
m-10220 -36 c0 -2 -7 -4 -15 -4 -8 0 -15 4 -15 10 0 5 7 7 15 4 8 -4 15 -8 15
-10z m9340 6 c0 -5 -2 -10 -4 -10 -3 0 -8 5 -11 10 -3 6 -1 10 4 10 6 0 11 -4
11 -10z m196 -18 c-17 -16 -18 -16 -5 5 7 12 15 20 18 17 3 -2 -3 -12 -13 -22z
m-10718 2 c-10 -10 -21 -13 -29 -8 -12 7 0 14 41 23 2 1 -3 -6 -12 -15z m1542
12 c0 -3 -4 -8 -10 -11 -5 -3 -10 -1 -10 4 0 6 5 11 10 11 6 0 10 -2 10 -4z
m9250 -27 c0 -6 -4 -7 -10 -4 -5 3 -10 11 -10 16 0 6 5 7 10 4 6 -3 10 -11 10
-16z m-10460 -9 c0 -5 -5 -10 -11 -10 -5 0 -7 5 -4 10 3 6 8 10 11 10 2 0 4
-4 4 -10z m10840 -15 c0 -9 -6 -12 -15 -9 -8 4 -15 10 -15 15 0 5 7 9 15 9 8
0 15 -7 15 -15z m-10755 -23 c-3 -3 -11 0 -18 7 -9 10 -8 11 6 5 10 -3 15 -9
12 -12z m10237 -19 c-2 -12 -8 -23 -12 -23 -4 0 -7 11 -7 23 0 13 5 24 12 24
7 0 10 -10 7 -24z m-9277 7 c3 -5 1 -10 -4 -10 -6 0 -11 5 -11 10 0 6 2 10 4
10 3 0 8 -4 11 -10z m105 3 c0 -5 -5 -15 -10 -23 -8 -12 -10 -11 -10 8 0 12 5
22 10 22 6 0 10 -3 10 -7z m9100 -3 c0 -5 -4 -10 -10 -10 -5 0 -10 5 -10 10 0
6 5 10 10 10 6 0 10 -4 10 -10z m185 1 c3 -5 1 -12 -5 -16 -5 -3 -10 1 -10 9
0 18 6 21 15 7z m455 -7 c0 -8 -19 -13 -24 -6 -3 5 1 9 9 9 8 0 15 -2 15 -3z
m-10803 -36 c-3 -7 -5 -2 -5 12 0 14 2 19 5 13 2 -7 2 -19 0 -25z m1070 -10
c-3 -8 -6 -5 -6 6 -1 11 2 17 5 13 3 -3 4 -12 1 -19z m9138 -18 c2 -19 1 -19
-17 -3 -14 12 -15 18 -6 24 15 10 21 4 23 -21z m-61 -21 c11 9 15 6 19 -16 7
-35 2 -40 -18 -19 -9 9 -20 16 -25 16 -4 0 -11 7 -14 16 -5 14 -4 15 9 4 11
-9 18 -10 29 -1z m-10604 -30 c0 -4 -11 -10 -25 -13 -27 -7 -34 -26 -10 -26 8
0 15 -4 15 -9 0 -4 -11 -6 -25 -3 -28 5 -27 4 -19 26 3 9 13 16 21 16 8 0 12
4 9 8 -2 4 4 8 15 8 10 0 19 -3 19 -7z m-245 -39 c3 -5 -1 -10 -9 -10 -9 0
-16 5 -16 10 0 6 4 10 9 10 6 0 13 -4 16 -10z m-22 -95 c-7 -21 -13 -19 -13 6
0 11 4 18 10 14 5 -3 7 -12 3 -20z m12481 -41 c5 -14 4 -15 -9 -4 -17 14 -19
20 -6 20 5 0 12 -7 15 -16z m176 -134 c0 -5 -5 -10 -11 -10 -5 0 -7 5 -4 10 3
6 8 10 11 10 2 0 4 -4 4 -10z m-4850 -27 c0 -5 -5 -15 -10 -23 -8 -12 -10 -11
-10 8 0 12 5 22 10 22 6 0 10 -3 10 -7z m-3530 -28 c0 -8 4 -15 8 -15 18 0 29
-44 20 -72 -11 -31 -16 -33 -52 -16 -19 8 -23 14 -15 24 7 8 7 14 -1 19 -16
10 -13 48 4 42 10 -4 12 0 9 14 -4 13 0 19 11 19 9 0 16 -7 16 -15z m704 1
c-3 -8 -1 -17 5 -20 6 -4 8 -13 5 -21 -4 -8 -10 -12 -15 -9 -5 3 -9 -3 -9 -13
0 -10 -4 -14 -8 -8 -4 6 -14 10 -22 10 -8 0 -16 8 -18 17 -2 13 1 16 12 12 11
-4 19 2 26 20 5 14 14 26 19 26 6 0 8 -6 5 -14z m-764 -15 c0 -6 -4 -13 -10
-16 -5 -3 -10 1 -10 9 0 9 5 16 10 16 6 0 10 -4 10 -9z m164 -69 c2 -4 0 -14
-5 -22 -8 -13 -10 -13 -19 0 -14 21 -12 3 2 -23 11 -21 10 -21 -7 -7 -17 14
-18 13 -12 -2 4 -13 1 -18 -9 -18 -11 0 -14 -5 -10 -16 4 -12 2 -15 -9 -10 -8
3 -15 1 -15 -5 0 -21 -44 -48 -62 -38 -10 5 -18 6 -18 2 0 -12 16 -35 24 -34
23 3 28 -1 12 -10 -25 -15 -43 5 -50 59 -6 43 1 51 22 30 9 -9 12 -9 12 3 0 8
-9 22 -20 32 -22 18 -26 37 -9 37 6 0 13 -9 16 -21 4 -14 12 -19 24 -16 11 3
19 0 19 -5 0 -6 6 -6 15 2 8 6 20 8 27 4 10 -6 11 -5 1 7 -14 18 -7 31 27 46
31 14 38 15 44 5z m4646 -56 c0 -3 -4 -8 -10 -11 -5 -3 -10 -1 -10 4 0 6 5 11
10 11 6 0 10 -2 10 -4z m190 -16 c-6 -11 -13 -20 -15 -20 -3 0 -5 9 -5 20 0
11 7 20 15 20 13 0 14 -4 5 -20z m-5050 1 c0 -6 -4 -13 -10 -16 -5 -3 -10 1
-10 9 0 9 5 16 10 16 6 0 10 -4 10 -9z m887 -13 c-3 -8 -6 -5 -6 6 -1 11 2 17
5 13 3 -3 4 -12 1 -19z m5810 16 c-3 -3 -12 -4 -19 -1 -8 3 -5 6 6 6 11 1 17
-2 13 -5z m-4910 -20 c-3 -3 -12 -4 -19 -1 -8 3 -5 6 6 6 11 1 17 -2 13 -5z
m-1556 -77 c20 -19 26 -47 9 -47 -5 0 -6 8 -3 17 5 13 2 15 -12 9 -23 -8 -35
8 -35 50 0 40 14 54 18 17 2 -15 12 -36 23 -46z m6434 63 c3 -5 -1 -10 -10
-10 -9 0 -13 5 -10 10 3 6 8 10 10 10 2 0 7 -4 10 -10z m-6661 -22 c-1 -13 -3
-31 -3 -40 -2 -32 -28 -20 -29 12 0 17 4 28 9 25 5 -4 9 1 9 9 0 9 4 16 8 16
5 0 8 -10 6 -22z m1749 7 c-3 -9 -8 -14 -10 -11 -3 3 -2 9 2 15 9 16 15 13 8
-4z m2137 5 c0 -5 7 -10 15 -10 10 0 14 -8 12 -22 -5 -28 -27 -36 -27 -9 0 11
-4 23 -10 26 -5 3 -10 10 -10 16 0 5 5 9 10 9 6 0 10 -4 10 -10z m336 -19
c-10 -11 -12 -21 -5 -34 6 -9 7 -17 3 -17 -3 0 -1 -6 5 -14 9 -11 6 -15 -14
-20 -18 -5 -25 -13 -25 -31 0 -18 -4 -23 -15 -19 -21 8 -45 -14 -38 -34 4 -14
3 -14 -5 -3 -6 8 -8 21 -4 29 4 11 1 14 -11 9 -9 -3 -17 -2 -17 3 0 6 -4 10
-10 10 -5 0 -10 -7 -10 -15 0 -8 -7 -15 -15 -15 -8 0 -15 4 -15 9 0 5 -9 11
-20 14 -20 5 -42 45 -33 60 2 4 11 7 19 7 8 0 13 -4 10 -9 -11 -17 5 -39 29
-37 13 0 21 4 19 7 -5 9 22 60 31 60 5 1 12 -6 17 -15 5 -9 13 -16 17 -16 15
0 48 35 61 66 9 20 19 30 27 27 11 -5 11 -8 -1 -22z m-379 -3 c-3 -8 -6 -5 -6
6 -1 11 2 17 5 13 3 -3 4 -12 1 -19z m-6397 -3 c0 -8 5 -15 10 -15 6 0 10 6
10 14 0 9 8 12 24 9 25 -5 36 -34 36 -99 0 -26 -3 -32 -16 -27 -8 3 -13 11
-10 18 3 8 -5 16 -19 19 -24 6 -75 53 -75 68 0 5 7 8 16 8 8 0 12 5 9 10 -3 6
-1 10 4 10 6 0 11 -7 11 -15z m156 -11 c-5 -17 -3 -23 4 -19 6 3 10 -3 10 -14
0 -15 -7 -21 -22 -21 -21 -1 -22 -2 -5 -14 20 -16 23 -56 3 -56 -9 0 -12 8 -8
25 5 31 -11 33 -25 3 -9 -20 -11 -16 -17 30 -7 57 -3 72 20 72 8 0 14 5 14 10
0 6 7 10 16 10 12 0 15 -6 10 -26z m3154 22 c0 -2 -7 -7 -16 -10 -8 -3 -12 -2
-9 4 6 10 25 14 25 6z m60 -8 c0 -4 7 -5 15 -2 11 5 14 2 9 -12 -4 -11 -3 -16
1 -12 14 13 39 -32 26 -45 -8 -8 -11 -6 -11 9 0 16 -2 17 -10 4 -8 -13 -10
-12 -10 3 0 14 -5 17 -22 12 -17 -6 -20 -4 -15 9 6 14 3 16 -13 11 -21 -7 -23
-5 -15 17 6 14 45 20 45 6z m-652 -21 c22 -17 12 -26 -18 -16 -16 6 -30 17
-30 25 0 14 24 10 48 -9z m6562 2 c0 -6 -4 -7 -10 -4 -5 3 -10 11 -10 16 0 6
5 7 10 4 6 -3 10 -11 10 -16z m-2600 7 c0 -3 -4 -8 -10 -11 -5 -3 -10 -1 -10
4 0 6 5 11 10 11 6 0 10 -2 10 -4z m-7516 -22 c20 -19 20 -24 1 -24 -8 0 -15
6 -15 14 0 8 -6 17 -12 19 -9 4 -10 6 -1 6 6 1 19 -6 27 -15z m2796 6 c0 -5
-2 -10 -4 -10 -3 0 -8 5 -11 10 -3 6 -1 10 4 10 6 0 11 -4 11 -10z m6000 0 c0
-5 -4 -10 -10 -10 -5 0 -10 5 -10 10 0 6 5 10 10 10 6 0 10 -4 10 -10z m-1473
-20 c-1 -11 -7 -20 -14 -20 -16 0 -17 12 -1 28 16 16 17 15 15 -8z m211 -5
c-3 -3 -9 2 -12 12 -6 14 -5 15 5 6 7 -7 10 -15 7 -18z m2358 10 c-11 -8 -22
-12 -25 -9 -6 6 19 24 34 24 6 -1 1 -7 -9 -15z m-6555 -12 c13 -16 12 -17 -3
-4 -10 7 -18 15 -18 17 0 8 8 3 21 -13z m6133 1 c5 -14 4 -15 -9 -4 -17 14
-19 20 -6 20 5 0 12 -7 15 -16z m-9363 -37 c-5 -12 -16 -23 -25 -25 -12 -3
-16 4 -16 28 0 18 4 29 10 25 6 -3 10 -1 10 6 0 9 3 9 14 -1 10 -8 12 -18 7
-33z m2059 33 c0 -5 -2 -10 -4 -10 -3 0 -8 5 -11 10 -3 6 -1 10 4 10 6 0 11
-4 11 -10z m310 -5 c7 -8 17 -15 22 -15 6 0 5 7 -2 15 -7 9 -8 15 -2 15 5 0
13 -7 16 -16 5 -13 15 -15 40 -11 29 5 35 2 40 -16 3 -11 0 -27 -6 -35 -9 -10
-8 -16 3 -23 8 -5 17 -9 22 -9 4 0 7 -4 7 -8 0 -15 -78 -13 -93 3 -8 8 -18 11
-22 7 -4 -4 -4 3 -1 15 4 12 2 24 -3 27 -17 11 -53 66 -43 66 5 0 15 -7 22
-15z m360 5 c0 -5 -5 -10 -11 -10 -5 0 -7 5 -4 10 3 6 8 10 11 10 2 0 4 -4 4
-10z m704 -5 c3 -8 1 -15 -4 -15 -6 0 -10 7 -10 15 0 8 2 15 4 15 2 0 6 -7 10
-15z m4732 3 c4 -7 4 -10 -1 -6 -4 4 -17 2 -29 -4 -19 -10 -20 -10 -7 5 16 20
27 21 37 5z m-7009 -20 c-3 -8 -6 -5 -6 6 -1 11 2 17 5 13 3 -3 4 -12 1 -19z
m2313 12 c0 -5 -2 -10 -4 -10 -3 0 -8 5 -11 10 -3 6 -1 10 4 10 6 0 11 -4 11
-10z m4783 -33 c-6 -38 0 -33 -46 -40 -35 -5 -37 -5 -31 19 5 18 2 24 -10 24
-9 0 -16 5 -16 11 0 6 9 8 20 4 11 -4 20 -2 20 4 0 6 5 11 11 11 5 0 8 -4 4
-9 -3 -5 -1 -12 4 -16 6 -3 15 4 21 15 16 29 29 16 23 -23z m-5548 23 c3 -5 2
-10 -4 -10 -5 0 -13 5 -16 10 -3 6 -2 10 4 10 5 0 13 -4 16 -10z m1515 -1 c0
-6 -6 -17 -14 -25 -8 -7 -12 -24 -9 -36 4 -19 3 -20 -6 -6 -14 21 -3 78 15 78
8 0 14 -5 14 -11z m-2990 -20 c0 -5 -4 -9 -10 -9 -5 0 -10 7 -10 16 0 8 5 12
10 9 6 -3 10 -10 10 -16z m863 4 c-7 -3 -13 -12 -13 -20 0 -13 -3 -13 -16 -2
-14 11 -13 14 8 25 13 7 25 10 28 7 3 -3 -1 -8 -7 -10z m1305 -22 c2 -22 0
-31 -7 -26 -6 3 -11 -1 -11 -9 0 -9 -5 -16 -11 -16 -5 0 -8 4 -5 8 2 4 1 14
-4 22 -7 11 -10 7 -15 -13 -4 -16 -14 -27 -24 -27 -28 0 -33 12 -11 27 11 8
20 23 20 33 0 10 5 22 12 26 6 4 8 3 5 -3 -4 -6 0 -14 9 -17 24 -9 36 -7 29 4
-4 6 -11 8 -16 5 -5 -3 -6 1 -3 10 10 25 27 12 32 -24z m4992 7 c0 -5 -7 -3
-15 6 -8 8 -15 18 -15 22 0 3 7 1 15 -6 8 -7 15 -17 15 -22z m-8443 7 c0 -8
-4 -12 -9 -9 -5 3 -6 10 -3 15 9 13 12 11 12 -6z m3683 1 c0 -8 -5 -18 -10
-21 -6 -4 -8 -16 -5 -28 5 -17 4 -18 -4 -7 -11 17 -3 70 10 70 5 0 9 -6 9 -14z
m4690 -6 c9 -17 8 -20 -10 -20 -13 0 -20 7 -20 20 0 11 4 20 10 20 5 0 14 -9
20 -20z m1560 5 c0 -8 -4 -15 -10 -15 -5 0 -7 7 -4 15 4 8 8 15 10 15 2 0 4
-7 4 -15z m-803 -20 c12 4 14 -1 11 -19 -3 -14 -2 -24 3 -23 4 1 15 -7 24 -18
10 -12 18 -16 21 -9 6 14 50 6 65 -12 9 -11 7 -14 -12 -14 -13 0 -31 -5 -39
-11 -11 -8 -8 -9 16 -5 28 4 31 3 27 -15 -9 -33 -38 -41 -131 -34 -118 7 -122
9 -118 48 2 18 4 45 5 61 1 25 3 27 18 15 14 -12 16 -12 11 2 -3 9 -2 22 3 30
7 9 9 -12 7 -63 -3 -69 -1 -78 14 -78 15 0 18 9 19 48 1 26 0 53 -1 61 -1 9 4
12 17 7 17 -6 17 -5 -1 8 -11 9 -16 21 -12 31 5 15 7 15 22 0 9 -9 23 -14 31
-10z m-7830 -6 c2 -16 -1 -19 -9 -11 -5 5 -7 15 -4 21 10 15 12 14 13 -10z
m7550 15 c-3 -3 -12 -4 -19 -1 -8 3 -5 6 6 6 11 1 17 -2 13 -5z m-7867 -14 c0
-5 -2 -10 -4 -10 -3 0 -8 5 -11 10 -3 6 -1 10 4 10 6 0 11 -4 11 -10z m2246
-17 c-10 -10 -19 5 -10 18 6 11 8 11 12 0 2 -7 1 -15 -2 -18z m104 17 c0 -5
-5 -10 -11 -10 -5 0 -7 5 -4 10 3 6 8 10 11 10 2 0 4 -4 4 -10z m3820 -5 c0
-8 -11 -25 -24 -39 -25 -27 -47 -37 -26 -11 7 8 10 25 6 38 -4 19 -1 23 19 25
16 1 25 -3 25 -13z m405 5 c3 -6 -1 -7 -9 -4 -18 7 -21 14 -7 14 6 0 13 -4 16
-10z m-5908 -22 c-3 -8 -6 -5 -6 6 -1 11 2 17 5 13 3 -3 4 -12 1 -19z m76 -10
c-2 -4 -10 -2 -17 5 -8 6 -12 15 -9 19 2 4 10 2 17 -5 8 -6 12 -15 9 -19z
m1534 10 c-3 -8 -6 -5 -6 6 -1 11 2 17 5 13 3 -3 4 -12 1 -19z m5705 -3 c6
-14 8 -28 5 -31 -9 -10 -34 13 -40 36 -8 30 21 25 35 -5z m228 15 c0 -5 -5
-10 -11 -10 -5 0 -7 5 -4 10 3 6 8 10 11 10 2 0 4 -4 4 -10z m610 6 c0 -3 -4
-8 -10 -11 -5 -3 -10 -1 -10 4 0 6 5 11 10 11 6 0 10 -2 10 -4z m145 -8 c26
-12 32 -23 15 -33 -16 -10 -12 -28 5 -22 22 9 28 -10 13 -43 -15 -34 -42 -45
-133 -54 -32 -4 -70 -9 -84 -13 -24 -6 -24 -5 -16 43 4 27 7 61 7 77 -1 33 11
35 32 5 15 -20 21 -15 18 13 -1 4 7 5 18 2 12 -3 17 -10 12 -21 -5 -14 -2 -13
13 2 19 19 20 19 26 -5 7 -24 7 -24 8 -1 1 12 8 25 16 28 8 4 15 12 15 20 0
17 2 17 35 2z m-2699 -38 c8 0 14 -9 14 -21 0 -16 -5 -20 -27 -17 -18 2 -29
10 -31 22 -4 19 20 43 26 26 2 -6 10 -10 18 -10z m135 -2 c-13 -4 -28 -5 -34
-1 -14 9 23 22 42 15 10 -4 8 -8 -8 -14z m2729 7 c0 -8 -7 -15 -15 -15 -9 0
-12 6 -9 15 4 8 10 15 15 15 5 0 9 -7 9 -15z m-2770 -29 c0 -9 -30 -14 -35 -6
-4 6 3 10 14 10 12 0 21 -2 21 -4z m3470 -6 c0 -5 -4 -10 -10 -10 -5 0 -10 5
-10 10 0 6 5 10 10 10 6 0 10 -4 10 -10z m-1099 -23 c-1 -4 -1 -23 -1 -42 0
-28 -4 -35 -19 -35 -24 0 -57 48 -42 63 7 7 15 6 26 -3 13 -11 15 -9 15 10 0
12 5 20 11 18 6 -2 10 -7 10 -11z m-741 -17 c0 -5 -7 -10 -16 -10 -8 0 -12 5
-9 10 3 6 10 10 16 10 5 0 9 -4 9 -10z m538 -4 c-10 -7 -14 -17 -10 -21 4 -5
1 -5 -6 -1 -10 6 -10 11 -1 22 6 8 17 14 23 14 6 0 3 -7 -6 -14z m1402 -20 c0
-7 -3 -7 -8 -1 -4 6 -13 11 -20 13 -10 2 -10 -2 0 -18 7 -11 19 -18 29 -15 10
3 16 -1 16 -11 0 -13 -7 -14 -31 -9 -17 4 -46 6 -64 6 -24 -1 -33 2 -29 11 5
14 19 15 57 3 22 -7 23 -6 11 9 -18 22 4 53 25 35 8 -6 14 -17 14 -23z m-160
10 c0 -3 -4 -8 -10 -11 -5 -3 -10 -1 -10 4 0 6 5 11 10 11 6 0 10 -2 10 -4z"/>
<path d="M8465 7820 c3 -5 8 -10 11 -10 2 0 4 5 4 10 0 6 -5 10 -11 10 -5 0
-7 -4 -4 -10z"/>
<path d="M6586 9384 c-9 -8 -16 -21 -15 -27 0 -9 2 -8 6 1 2 6 11 12 19 12 8
0 14 7 14 15 0 19 -5 19 -24 -1z"/>
<path d="M5559 9361 c-13 -11 -21 -22 -18 -26 4 -3 15 2 25 13 11 11 26 22 34
25 12 4 12 6 -1 6 -9 1 -27 -8 -40 -18z"/>
<path d="M6721 9367 c2 -1 13 -9 24 -17 19 -14 19 -14 6 3 -7 9 -18 17 -24 17
-6 0 -8 -1 -6 -3z"/>
<path d="M6710 9314 c0 -8 5 -12 10 -9 6 4 8 11 5 16 -9 14 -15 11 -15 -7z"/>
<path d="M9110 9195 c0 -9 9 -15 21 -15 18 0 19 2 9 15 -7 8 -16 15 -21 15 -5
0 -9 -7 -9 -15z"/>
<path d="M1177 9172 c-3 -13 2 -18 19 -20 29 -2 31 9 5 25 -16 10 -20 9 -24
-5z"/>
<path d="M7460 9180 c0 -5 7 -10 16 -10 8 0 12 5 9 10 -3 6 -10 10 -16 10 -5
0 -9 -4 -9 -10z"/>
<path d="M10597 9159 c-15 -9 -43 -49 -34 -49 2 0 18 11 36 24 32 24 31 43 -2
25z"/>
<path d="M7220 9150 c0 -6 7 -10 15 -10 8 0 15 2 15 4 0 2 -7 6 -15 10 -8 3
-15 1 -15 -4z"/>
<path d="M5190 9140 c0 -5 5 -10 10 -10 6 0 10 5 10 10 0 6 -4 10 -10 10 -5 0
-10 -4 -10 -10z"/>
<path d="M10888 9113 c7 -3 16 -2 19 1 4 3 -2 6 -13 5 -11 0 -14 -3 -6 -6z"/>
<path d="M3408 8993 c7 -3 16 -2 19 1 4 3 -2 6 -13 5 -11 0 -14 -3 -6 -6z"/>
<path d="M2006 8955 c-3 -8 -1 -15 4 -15 6 0 10 7 10 15 0 8 -2 15 -4 15 -2 0
-6 -7 -10 -15z"/>
<path d="M11625 8949 c-4 -6 -5 -12 -2 -15 2 -3 7 2 10 11 7 17 1 20 -8 4z"/>
<path d="M11370 8920 c8 -5 20 -10 25 -10 6 0 3 5 -5 10 -8 5 -19 10 -25 10
-5 0 -3 -5 5 -10z"/>
<path d="M835 8890 c-3 -5 -1 -10 4 -10 6 0 11 5 11 10 0 6 -2 10 -4 10 -3 0
-8 -4 -11 -10z"/>
<path d="M11350 8835 c0 -8 2 -15 4 -15 2 0 6 7 10 15 3 8 1 15 -4 15 -6 0
-10 -7 -10 -15z"/>
<path d="M360 8740 c0 -5 5 -10 11 -10 5 0 7 5 4 10 -3 6 -8 10 -11 10 -2 0
-4 -4 -4 -10z"/>
<path d="M315 8620 c-3 -6 1 -7 9 -4 18 7 21 14 7 14 -6 0 -13 -4 -16 -10z"/>
</g>
</svg>
